<svg width="234" height="294" viewBox="0 0 234 294" fill="none" xmlns="http://www.w3.org/2000/svg">
<path d="M0 42C0 18.804 18.804 0 42 0H192C215.196 0 234 18.804 234 42V249C234 266.673 219.673 281 202 281H32C14.3269 281 0 266.673 0 249V42Z" fill="url(#paint0_linear_8003_74)" fill-opacity="0.1"/>
<path d="M42 0.75H192C214.782 0.75 233.25 19.2183 233.25 42V249C233.25 266.259 219.259 280.25 202 280.25H32C14.7411 280.25 0.75 266.259 0.75 249V42C0.75 19.2183 19.2183 0.75 42 0.75Z" stroke="url(#paint1_linear_8003_74)" stroke-opacity="0.28" stroke-width="1.5"/>
<rect x="12" y="222" width="210" height="210" rx="36" transform="rotate(-90 12 222)" fill="url(#paint2_linear_8003_74)" fill-opacity="0.15"/>
<rect x="13.2166" y="220.783" width="207.567" height="207.567" rx="34.7834" transform="rotate(-90 13.2166 220.783)" stroke="url(#paint3_linear_8003_74)" stroke-opacity="0.28" stroke-width="2.43324"/>
<rect x="36.3325" y="117" width="114.081" height="114.081" rx="26.7657" transform="rotate(-45 36.3325 117)" fill="url(#paint4_linear_8003_74)" fill-opacity="0.15"/>
<rect x="38.0531" y="117" width="111.648" height="111.648" rx="25.5491" transform="rotate(-45 38.0531 117)" stroke="url(#paint5_linear_8003_74)" stroke-opacity="0.28" stroke-width="2.43324"/>
<g filter="url(#filter0_ddi_8003_74)">
<rect x="70.7437" y="117" width="65.4163" height="65.4163" rx="14.5995" transform="rotate(-45 70.7437 117)" fill="url(#paint6_diamond_8003_74)"/>
<rect x="70.7437" y="117" width="65.4163" height="65.4163" rx="14.5995" transform="rotate(-45 70.7437 117)" fill="url(#paint7_diamond_8003_74)"/>
<rect x="70.7437" y="117" width="65.4163" height="65.4163" rx="14.5995" transform="rotate(-45 70.7437 117)" fill="url(#paint8_linear_8003_74)"/>
</g>
<rect x="77.7503" y="117" width="55.5075" height="55.5075" rx="9.73298" transform="rotate(-45 77.7503 117)" fill="black" fill-opacity="0.2"/>
<g filter="url(#filter1_ddi_8003_74)">
<rect x="88.6473" y="117" width="40.0966" height="40.0966" rx="7.29973" transform="rotate(-45 88.6473 117)" fill="url(#paint9_diamond_8003_74)"/>
<rect x="88.6473" y="117" width="40.0966" height="40.0966" rx="7.29973" transform="rotate(-45 88.6473 117)" fill="url(#paint10_diamond_8003_74)"/>
<rect x="88.6473" y="117" width="40.0966" height="40.0966" rx="7.29973" transform="rotate(-45 88.6473 117)" fill="url(#paint11_linear_8003_74)"/>
</g>
<g filter="url(#filter2_ddi_8003_74)">
<path d="M43.5941 261V242.1H47.2391V258.165H55.5281V261H43.5941ZM64.2075 261.324C62.8395 261.324 61.6245 261.036 60.5625 260.46C59.5185 259.884 58.6995 259.074 58.1055 258.03C57.5115 256.986 57.2145 255.789 57.2145 254.439C57.2145 253.035 57.5025 251.802 58.0785 250.74C58.6725 249.66 59.4915 248.814 60.5355 248.202C61.5795 247.59 62.8035 247.284 64.2075 247.284C65.5395 247.284 66.7095 247.572 67.7175 248.148C68.7435 248.724 69.5445 249.516 70.1205 250.524C70.6965 251.514 70.9845 252.639 70.9845 253.899C70.9845 254.079 70.9755 254.286 70.9575 254.52C70.9575 254.736 70.9485 254.961 70.9305 255.195H59.8065V252.954H67.2855C67.2315 252.126 66.9165 251.469 66.3405 250.983C65.7645 250.479 65.0535 250.227 64.2075 250.227C63.5955 250.227 63.0285 250.371 62.5065 250.659C61.9845 250.929 61.5705 251.343 61.2645 251.901C60.9585 252.459 60.8055 253.161 60.8055 254.007V254.79C60.8055 255.51 60.9495 256.14 61.2375 256.68C61.5255 257.22 61.9215 257.634 62.4255 257.922C62.9475 258.21 63.5325 258.354 64.1805 258.354C64.8285 258.354 65.3775 258.21 65.8275 257.922C66.2955 257.616 66.6465 257.229 66.8805 256.761H70.5795C70.3275 257.607 69.9045 258.381 69.3105 259.083C68.7165 259.767 67.9785 260.316 67.0965 260.73C66.2325 261.126 65.2695 261.324 64.2075 261.324ZM76.7132 261L71.9342 247.608H75.7682L79.0352 257.76H79.0622L82.3292 247.608H86.1362L81.3302 261H76.7132ZM94.1343 261.324C92.7663 261.324 91.5513 261.036 90.4893 260.46C89.4453 259.884 88.6263 259.074 88.0323 258.03C87.4383 256.986 87.1413 255.789 87.1413 254.439C87.1413 253.035 87.4293 251.802 88.0053 250.74C88.5993 249.66 89.4183 248.814 90.4623 248.202C91.5063 247.59 92.7303 247.284 94.1343 247.284C95.4663 247.284 96.6363 247.572 97.6443 248.148C98.6703 248.724 99.4713 249.516 100.047 250.524C100.623 251.514 100.911 252.639 100.911 253.899C100.911 254.079 100.902 254.286 100.884 254.52C100.884 254.736 100.875 254.961 100.857 255.195H89.7333V252.954H97.2123C97.1583 252.126 96.8433 251.469 96.2673 250.983C95.6913 250.479 94.9803 250.227 94.1343 250.227C93.5223 250.227 92.9553 250.371 92.4333 250.659C91.9113 250.929 91.4973 251.343 91.1913 251.901C90.8853 252.459 90.7323 253.161 90.7323 254.007V254.79C90.7323 255.51 90.8763 256.14 91.1643 256.68C91.4523 257.22 91.8483 257.634 92.3523 257.922C92.8743 258.21 93.4593 258.354 94.1073 258.354C94.7553 258.354 95.3043 258.21 95.7543 257.922C96.2223 257.616 96.5733 257.229 96.8073 256.761H100.506C100.254 257.607 99.8313 258.381 99.2373 259.083C98.6433 259.767 97.9053 260.316 97.0233 260.73C96.1593 261.126 95.1963 261.324 94.1343 261.324ZM103.605 261V241.668H107.25V261H103.605ZM117.1 261.324C115.732 261.324 114.517 261.036 113.455 260.46C112.411 259.884 111.592 259.074 110.998 258.03C110.404 256.986 110.107 255.789 110.107 254.439C110.107 253.035 110.395 251.802 110.971 250.74C111.565 249.66 112.384 248.814 113.428 248.202C114.472 247.59 115.696 247.284 117.1 247.284C118.432 247.284 119.602 247.572 120.61 248.148C121.636 248.724 122.437 249.516 123.013 250.524C123.589 251.514 123.877 252.639 123.877 253.899C123.877 254.079 123.868 254.286 123.85 254.52C123.85 254.736 123.841 254.961 123.823 255.195H112.699V252.954H120.178C120.124 252.126 119.809 251.469 119.233 250.983C118.657 250.479 117.946 250.227 117.1 250.227C116.488 250.227 115.921 250.371 115.399 250.659C114.877 250.929 114.463 251.343 114.157 251.901C113.851 252.459 113.698 253.161 113.698 254.007V254.79C113.698 255.51 113.842 256.14 114.13 256.68C114.418 257.22 114.814 257.634 115.318 257.922C115.84 258.21 116.425 258.354 117.073 258.354C117.721 258.354 118.27 258.21 118.72 257.922C119.188 257.616 119.539 257.229 119.773 256.761H123.472C123.22 257.607 122.797 258.381 122.203 259.083C121.609 259.767 120.871 260.316 119.989 260.73C119.125 261.126 118.162 261.324 117.1 261.324ZM132.645 261.324C131.403 261.324 130.287 261.018 129.297 260.406C128.307 259.794 127.533 258.957 126.975 257.895C126.417 256.833 126.138 255.627 126.138 254.277C126.138 252.927 126.417 251.73 126.975 250.686C127.533 249.624 128.307 248.796 129.297 248.202C130.305 247.59 131.43 247.284 132.672 247.284C133.68 247.284 134.553 247.473 135.291 247.851C136.047 248.211 136.65 248.715 137.1 249.363V241.668H140.745V261H137.532L137.181 259.029H137.154C136.866 259.461 136.515 259.848 136.101 260.19C135.687 260.532 135.192 260.802 134.616 261C134.058 261.216 133.401 261.324 132.645 261.324ZM133.509 258.192C134.229 258.192 134.868 258.021 135.426 257.679C135.984 257.337 136.416 256.878 136.722 256.302C137.028 255.708 137.181 255.042 137.181 254.304C137.181 253.548 137.028 252.882 136.722 252.306C136.416 251.712 135.984 251.253 135.426 250.929C134.868 250.587 134.229 250.416 133.509 250.416C132.807 250.416 132.168 250.587 131.592 250.929C131.034 251.253 130.602 251.712 130.296 252.306C129.99 252.882 129.837 253.539 129.837 254.277C129.837 255.033 129.99 255.708 130.296 256.302C130.602 256.878 131.034 257.337 131.592 257.679C132.168 258.021 132.807 258.192 133.509 258.192ZM157.62 261.324C156.216 261.324 154.947 261.045 153.813 260.487C152.679 259.929 151.779 259.092 151.113 257.976C150.447 256.86 150.114 255.438 150.114 253.71V242.1H153.759V253.737C153.759 254.673 153.912 255.465 154.218 256.113C154.542 256.743 154.992 257.211 155.568 257.517C156.162 257.823 156.864 257.976 157.674 257.976C158.502 257.976 159.204 257.823 159.78 257.517C160.374 257.211 160.824 256.743 161.13 256.113C161.436 255.465 161.589 254.673 161.589 253.737V242.1H165.234V253.71C165.234 255.438 164.892 256.86 164.208 257.976C163.524 259.092 162.597 259.929 161.427 260.487C160.275 261.045 159.006 261.324 157.62 261.324ZM168.441 266.832V247.608H171.654L172.032 249.579C172.338 249.147 172.698 248.76 173.112 248.418C173.526 248.058 174.012 247.779 174.57 247.581C175.146 247.383 175.803 247.284 176.541 247.284C177.801 247.284 178.917 247.59 179.889 248.202C180.861 248.814 181.626 249.651 182.184 250.713C182.76 251.757 183.048 252.963 183.048 254.331C183.048 255.663 182.76 256.86 182.184 257.922C181.626 258.984 180.852 259.821 179.862 260.433C178.89 261.027 177.774 261.324 176.514 261.324C175.506 261.324 174.633 261.144 173.895 260.784C173.157 260.406 172.554 259.893 172.086 259.245V266.832H168.441ZM175.677 258.192C176.397 258.192 177.036 258.03 177.594 257.706C178.152 257.364 178.584 256.905 178.89 256.329C179.196 255.735 179.349 255.069 179.349 254.331C179.349 253.575 179.196 252.909 178.89 252.333C178.584 251.739 178.152 251.271 177.594 250.929C177.036 250.587 176.397 250.416 175.677 250.416C174.957 250.416 174.318 250.587 173.76 250.929C173.202 251.271 172.77 251.73 172.464 252.306C172.158 252.882 172.005 253.548 172.005 254.304C172.005 255.06 172.158 255.735 172.464 256.329C172.77 256.905 173.202 257.364 173.76 257.706C174.318 258.03 174.957 258.192 175.677 258.192ZM186.652 254.898L186.22 242.1H190.135L189.73 254.898H186.652ZM188.191 261.135C187.525 261.135 186.985 260.937 186.571 260.541C186.157 260.127 185.95 259.632 185.95 259.056C185.95 258.444 186.157 257.94 186.571 257.544C186.985 257.13 187.525 256.923 188.191 256.923C188.857 256.923 189.397 257.13 189.811 257.544C190.225 257.94 190.432 258.444 190.432 259.056C190.432 259.632 190.225 260.127 189.811 260.541C189.397 260.937 188.857 261.135 188.191 261.135Z" fill="white"/>
<path d="M43.5941 261V242.1H47.2391V258.165H55.5281V261H43.5941ZM64.2075 261.324C62.8395 261.324 61.6245 261.036 60.5625 260.46C59.5185 259.884 58.6995 259.074 58.1055 258.03C57.5115 256.986 57.2145 255.789 57.2145 254.439C57.2145 253.035 57.5025 251.802 58.0785 250.74C58.6725 249.66 59.4915 248.814 60.5355 248.202C61.5795 247.59 62.8035 247.284 64.2075 247.284C65.5395 247.284 66.7095 247.572 67.7175 248.148C68.7435 248.724 69.5445 249.516 70.1205 250.524C70.6965 251.514 70.9845 252.639 70.9845 253.899C70.9845 254.079 70.9755 254.286 70.9575 254.52C70.9575 254.736 70.9485 254.961 70.9305 255.195H59.8065V252.954H67.2855C67.2315 252.126 66.9165 251.469 66.3405 250.983C65.7645 250.479 65.0535 250.227 64.2075 250.227C63.5955 250.227 63.0285 250.371 62.5065 250.659C61.9845 250.929 61.5705 251.343 61.2645 251.901C60.9585 252.459 60.8055 253.161 60.8055 254.007V254.79C60.8055 255.51 60.9495 256.14 61.2375 256.68C61.5255 257.22 61.9215 257.634 62.4255 257.922C62.9475 258.21 63.5325 258.354 64.1805 258.354C64.8285 258.354 65.3775 258.21 65.8275 257.922C66.2955 257.616 66.6465 257.229 66.8805 256.761H70.5795C70.3275 257.607 69.9045 258.381 69.3105 259.083C68.7165 259.767 67.9785 260.316 67.0965 260.73C66.2325 261.126 65.2695 261.324 64.2075 261.324ZM76.7132 261L71.9342 247.608H75.7682L79.0352 257.76H79.0622L82.3292 247.608H86.1362L81.3302 261H76.7132ZM94.1343 261.324C92.7663 261.324 91.5513 261.036 90.4893 260.46C89.4453 259.884 88.6263 259.074 88.0323 258.03C87.4383 256.986 87.1413 255.789 87.1413 254.439C87.1413 253.035 87.4293 251.802 88.0053 250.74C88.5993 249.66 89.4183 248.814 90.4623 248.202C91.5063 247.59 92.7303 247.284 94.1343 247.284C95.4663 247.284 96.6363 247.572 97.6443 248.148C98.6703 248.724 99.4713 249.516 100.047 250.524C100.623 251.514 100.911 252.639 100.911 253.899C100.911 254.079 100.902 254.286 100.884 254.52C100.884 254.736 100.875 254.961 100.857 255.195H89.7333V252.954H97.2123C97.1583 252.126 96.8433 251.469 96.2673 250.983C95.6913 250.479 94.9803 250.227 94.1343 250.227C93.5223 250.227 92.9553 250.371 92.4333 250.659C91.9113 250.929 91.4973 251.343 91.1913 251.901C90.8853 252.459 90.7323 253.161 90.7323 254.007V254.79C90.7323 255.51 90.8763 256.14 91.1643 256.68C91.4523 257.22 91.8483 257.634 92.3523 257.922C92.8743 258.21 93.4593 258.354 94.1073 258.354C94.7553 258.354 95.3043 258.21 95.7543 257.922C96.2223 257.616 96.5733 257.229 96.8073 256.761H100.506C100.254 257.607 99.8313 258.381 99.2373 259.083C98.6433 259.767 97.9053 260.316 97.0233 260.73C96.1593 261.126 95.1963 261.324 94.1343 261.324ZM103.605 261V241.668H107.25V261H103.605ZM117.1 261.324C115.732 261.324 114.517 261.036 113.455 260.46C112.411 259.884 111.592 259.074 110.998 258.03C110.404 256.986 110.107 255.789 110.107 254.439C110.107 253.035 110.395 251.802 110.971 250.74C111.565 249.66 112.384 248.814 113.428 248.202C114.472 247.59 115.696 247.284 117.1 247.284C118.432 247.284 119.602 247.572 120.61 248.148C121.636 248.724 122.437 249.516 123.013 250.524C123.589 251.514 123.877 252.639 123.877 253.899C123.877 254.079 123.868 254.286 123.85 254.52C123.85 254.736 123.841 254.961 123.823 255.195H112.699V252.954H120.178C120.124 252.126 119.809 251.469 119.233 250.983C118.657 250.479 117.946 250.227 117.1 250.227C116.488 250.227 115.921 250.371 115.399 250.659C114.877 250.929 114.463 251.343 114.157 251.901C113.851 252.459 113.698 253.161 113.698 254.007V254.79C113.698 255.51 113.842 256.14 114.13 256.68C114.418 257.22 114.814 257.634 115.318 257.922C115.84 258.21 116.425 258.354 117.073 258.354C117.721 258.354 118.27 258.21 118.72 257.922C119.188 257.616 119.539 257.229 119.773 256.761H123.472C123.22 257.607 122.797 258.381 122.203 259.083C121.609 259.767 120.871 260.316 119.989 260.73C119.125 261.126 118.162 261.324 117.1 261.324ZM132.645 261.324C131.403 261.324 130.287 261.018 129.297 260.406C128.307 259.794 127.533 258.957 126.975 257.895C126.417 256.833 126.138 255.627 126.138 254.277C126.138 252.927 126.417 251.73 126.975 250.686C127.533 249.624 128.307 248.796 129.297 248.202C130.305 247.59 131.43 247.284 132.672 247.284C133.68 247.284 134.553 247.473 135.291 247.851C136.047 248.211 136.65 248.715 137.1 249.363V241.668H140.745V261H137.532L137.181 259.029H137.154C136.866 259.461 136.515 259.848 136.101 260.19C135.687 260.532 135.192 260.802 134.616 261C134.058 261.216 133.401 261.324 132.645 261.324ZM133.509 258.192C134.229 258.192 134.868 258.021 135.426 257.679C135.984 257.337 136.416 256.878 136.722 256.302C137.028 255.708 137.181 255.042 137.181 254.304C137.181 253.548 137.028 252.882 136.722 252.306C136.416 251.712 135.984 251.253 135.426 250.929C134.868 250.587 134.229 250.416 133.509 250.416C132.807 250.416 132.168 250.587 131.592 250.929C131.034 251.253 130.602 251.712 130.296 252.306C129.99 252.882 129.837 253.539 129.837 254.277C129.837 255.033 129.99 255.708 130.296 256.302C130.602 256.878 131.034 257.337 131.592 257.679C132.168 258.021 132.807 258.192 133.509 258.192ZM157.62 261.324C156.216 261.324 154.947 261.045 153.813 260.487C152.679 259.929 151.779 259.092 151.113 257.976C150.447 256.86 150.114 255.438 150.114 253.71V242.1H153.759V253.737C153.759 254.673 153.912 255.465 154.218 256.113C154.542 256.743 154.992 257.211 155.568 257.517C156.162 257.823 156.864 257.976 157.674 257.976C158.502 257.976 159.204 257.823 159.78 257.517C160.374 257.211 160.824 256.743 161.13 256.113C161.436 255.465 161.589 254.673 161.589 253.737V242.1H165.234V253.71C165.234 255.438 164.892 256.86 164.208 257.976C163.524 259.092 162.597 259.929 161.427 260.487C160.275 261.045 159.006 261.324 157.62 261.324ZM168.441 266.832V247.608H171.654L172.032 249.579C172.338 249.147 172.698 248.76 173.112 248.418C173.526 248.058 174.012 247.779 174.57 247.581C175.146 247.383 175.803 247.284 176.541 247.284C177.801 247.284 178.917 247.59 179.889 248.202C180.861 248.814 181.626 249.651 182.184 250.713C182.76 251.757 183.048 252.963 183.048 254.331C183.048 255.663 182.76 256.86 182.184 257.922C181.626 258.984 180.852 259.821 179.862 260.433C178.89 261.027 177.774 261.324 176.514 261.324C175.506 261.324 174.633 261.144 173.895 260.784C173.157 260.406 172.554 259.893 172.086 259.245V266.832H168.441ZM175.677 258.192C176.397 258.192 177.036 258.03 177.594 257.706C178.152 257.364 178.584 256.905 178.89 256.329C179.196 255.735 179.349 255.069 179.349 254.331C179.349 253.575 179.196 252.909 178.89 252.333C178.584 251.739 178.152 251.271 177.594 250.929C177.036 250.587 176.397 250.416 175.677 250.416C174.957 250.416 174.318 250.587 173.76 250.929C173.202 251.271 172.77 251.73 172.464 252.306C172.158 252.882 172.005 253.548 172.005 254.304C172.005 255.06 172.158 255.735 172.464 256.329C172.77 256.905 173.202 257.364 173.76 257.706C174.318 258.03 174.957 258.192 175.677 258.192ZM186.652 254.898L186.22 242.1H190.135L189.73 254.898H186.652ZM188.191 261.135C187.525 261.135 186.985 260.937 186.571 260.541C186.157 260.127 185.95 259.632 185.95 259.056C185.95 258.444 186.157 257.94 186.571 257.544C186.985 257.13 187.525 256.923 188.191 256.923C188.857 256.923 189.397 257.13 189.811 257.544C190.225 257.94 190.432 258.444 190.432 259.056C190.432 259.632 190.225 260.127 189.811 260.541C189.397 260.937 188.857 261.135 188.191 261.135Z" fill="url(#paint12_diamond_8003_74)"/>
<path d="M43.5941 261V242.1H47.2391V258.165H55.5281V261H43.5941ZM64.2075 261.324C62.8395 261.324 61.6245 261.036 60.5625 260.46C59.5185 259.884 58.6995 259.074 58.1055 258.03C57.5115 256.986 57.2145 255.789 57.2145 254.439C57.2145 253.035 57.5025 251.802 58.0785 250.74C58.6725 249.66 59.4915 248.814 60.5355 248.202C61.5795 247.59 62.8035 247.284 64.2075 247.284C65.5395 247.284 66.7095 247.572 67.7175 248.148C68.7435 248.724 69.5445 249.516 70.1205 250.524C70.6965 251.514 70.9845 252.639 70.9845 253.899C70.9845 254.079 70.9755 254.286 70.9575 254.52C70.9575 254.736 70.9485 254.961 70.9305 255.195H59.8065V252.954H67.2855C67.2315 252.126 66.9165 251.469 66.3405 250.983C65.7645 250.479 65.0535 250.227 64.2075 250.227C63.5955 250.227 63.0285 250.371 62.5065 250.659C61.9845 250.929 61.5705 251.343 61.2645 251.901C60.9585 252.459 60.8055 253.161 60.8055 254.007V254.79C60.8055 255.51 60.9495 256.14 61.2375 256.68C61.5255 257.22 61.9215 257.634 62.4255 257.922C62.9475 258.21 63.5325 258.354 64.1805 258.354C64.8285 258.354 65.3775 258.21 65.8275 257.922C66.2955 257.616 66.6465 257.229 66.8805 256.761H70.5795C70.3275 257.607 69.9045 258.381 69.3105 259.083C68.7165 259.767 67.9785 260.316 67.0965 260.73C66.2325 261.126 65.2695 261.324 64.2075 261.324ZM76.7132 261L71.9342 247.608H75.7682L79.0352 257.76H79.0622L82.3292 247.608H86.1362L81.3302 261H76.7132ZM94.1343 261.324C92.7663 261.324 91.5513 261.036 90.4893 260.46C89.4453 259.884 88.6263 259.074 88.0323 258.03C87.4383 256.986 87.1413 255.789 87.1413 254.439C87.1413 253.035 87.4293 251.802 88.0053 250.74C88.5993 249.66 89.4183 248.814 90.4623 248.202C91.5063 247.59 92.7303 247.284 94.1343 247.284C95.4663 247.284 96.6363 247.572 97.6443 248.148C98.6703 248.724 99.4713 249.516 100.047 250.524C100.623 251.514 100.911 252.639 100.911 253.899C100.911 254.079 100.902 254.286 100.884 254.52C100.884 254.736 100.875 254.961 100.857 255.195H89.7333V252.954H97.2123C97.1583 252.126 96.8433 251.469 96.2673 250.983C95.6913 250.479 94.9803 250.227 94.1343 250.227C93.5223 250.227 92.9553 250.371 92.4333 250.659C91.9113 250.929 91.4973 251.343 91.1913 251.901C90.8853 252.459 90.7323 253.161 90.7323 254.007V254.79C90.7323 255.51 90.8763 256.14 91.1643 256.68C91.4523 257.22 91.8483 257.634 92.3523 257.922C92.8743 258.21 93.4593 258.354 94.1073 258.354C94.7553 258.354 95.3043 258.21 95.7543 257.922C96.2223 257.616 96.5733 257.229 96.8073 256.761H100.506C100.254 257.607 99.8313 258.381 99.2373 259.083C98.6433 259.767 97.9053 260.316 97.0233 260.73C96.1593 261.126 95.1963 261.324 94.1343 261.324ZM103.605 261V241.668H107.25V261H103.605ZM117.1 261.324C115.732 261.324 114.517 261.036 113.455 260.46C112.411 259.884 111.592 259.074 110.998 258.03C110.404 256.986 110.107 255.789 110.107 254.439C110.107 253.035 110.395 251.802 110.971 250.74C111.565 249.66 112.384 248.814 113.428 248.202C114.472 247.59 115.696 247.284 117.1 247.284C118.432 247.284 119.602 247.572 120.61 248.148C121.636 248.724 122.437 249.516 123.013 250.524C123.589 251.514 123.877 252.639 123.877 253.899C123.877 254.079 123.868 254.286 123.85 254.52C123.85 254.736 123.841 254.961 123.823 255.195H112.699V252.954H120.178C120.124 252.126 119.809 251.469 119.233 250.983C118.657 250.479 117.946 250.227 117.1 250.227C116.488 250.227 115.921 250.371 115.399 250.659C114.877 250.929 114.463 251.343 114.157 251.901C113.851 252.459 113.698 253.161 113.698 254.007V254.79C113.698 255.51 113.842 256.14 114.13 256.68C114.418 257.22 114.814 257.634 115.318 257.922C115.84 258.21 116.425 258.354 117.073 258.354C117.721 258.354 118.27 258.21 118.72 257.922C119.188 257.616 119.539 257.229 119.773 256.761H123.472C123.22 257.607 122.797 258.381 122.203 259.083C121.609 259.767 120.871 260.316 119.989 260.73C119.125 261.126 118.162 261.324 117.1 261.324ZM132.645 261.324C131.403 261.324 130.287 261.018 129.297 260.406C128.307 259.794 127.533 258.957 126.975 257.895C126.417 256.833 126.138 255.627 126.138 254.277C126.138 252.927 126.417 251.73 126.975 250.686C127.533 249.624 128.307 248.796 129.297 248.202C130.305 247.59 131.43 247.284 132.672 247.284C133.68 247.284 134.553 247.473 135.291 247.851C136.047 248.211 136.65 248.715 137.1 249.363V241.668H140.745V261H137.532L137.181 259.029H137.154C136.866 259.461 136.515 259.848 136.101 260.19C135.687 260.532 135.192 260.802 134.616 261C134.058 261.216 133.401 261.324 132.645 261.324ZM133.509 258.192C134.229 258.192 134.868 258.021 135.426 257.679C135.984 257.337 136.416 256.878 136.722 256.302C137.028 255.708 137.181 255.042 137.181 254.304C137.181 253.548 137.028 252.882 136.722 252.306C136.416 251.712 135.984 251.253 135.426 250.929C134.868 250.587 134.229 250.416 133.509 250.416C132.807 250.416 132.168 250.587 131.592 250.929C131.034 251.253 130.602 251.712 130.296 252.306C129.99 252.882 129.837 253.539 129.837 254.277C129.837 255.033 129.99 255.708 130.296 256.302C130.602 256.878 131.034 257.337 131.592 257.679C132.168 258.021 132.807 258.192 133.509 258.192ZM157.62 261.324C156.216 261.324 154.947 261.045 153.813 260.487C152.679 259.929 151.779 259.092 151.113 257.976C150.447 256.86 150.114 255.438 150.114 253.71V242.1H153.759V253.737C153.759 254.673 153.912 255.465 154.218 256.113C154.542 256.743 154.992 257.211 155.568 257.517C156.162 257.823 156.864 257.976 157.674 257.976C158.502 257.976 159.204 257.823 159.78 257.517C160.374 257.211 160.824 256.743 161.13 256.113C161.436 255.465 161.589 254.673 161.589 253.737V242.1H165.234V253.71C165.234 255.438 164.892 256.86 164.208 257.976C163.524 259.092 162.597 259.929 161.427 260.487C160.275 261.045 159.006 261.324 157.62 261.324ZM168.441 266.832V247.608H171.654L172.032 249.579C172.338 249.147 172.698 248.76 173.112 248.418C173.526 248.058 174.012 247.779 174.57 247.581C175.146 247.383 175.803 247.284 176.541 247.284C177.801 247.284 178.917 247.59 179.889 248.202C180.861 248.814 181.626 249.651 182.184 250.713C182.76 251.757 183.048 252.963 183.048 254.331C183.048 255.663 182.76 256.86 182.184 257.922C181.626 258.984 180.852 259.821 179.862 260.433C178.89 261.027 177.774 261.324 176.514 261.324C175.506 261.324 174.633 261.144 173.895 260.784C173.157 260.406 172.554 259.893 172.086 259.245V266.832H168.441ZM175.677 258.192C176.397 258.192 177.036 258.03 177.594 257.706C178.152 257.364 178.584 256.905 178.89 256.329C179.196 255.735 179.349 255.069 179.349 254.331C179.349 253.575 179.196 252.909 178.89 252.333C178.584 251.739 178.152 251.271 177.594 250.929C177.036 250.587 176.397 250.416 175.677 250.416C174.957 250.416 174.318 250.587 173.76 250.929C173.202 251.271 172.77 251.73 172.464 252.306C172.158 252.882 172.005 253.548 172.005 254.304C172.005 255.06 172.158 255.735 172.464 256.329C172.77 256.905 173.202 257.364 173.76 257.706C174.318 258.03 174.957 258.192 175.677 258.192ZM186.652 254.898L186.22 242.1H190.135L189.73 254.898H186.652ZM188.191 261.135C187.525 261.135 186.985 260.937 186.571 260.541C186.157 260.127 185.95 259.632 185.95 259.056C185.95 258.444 186.157 257.94 186.571 257.544C186.985 257.13 187.525 256.923 188.191 256.923C188.857 256.923 189.397 257.13 189.811 257.544C190.225 257.94 190.432 258.444 190.432 259.056C190.432 259.632 190.225 260.127 189.811 260.541C189.397 260.937 188.857 261.135 188.191 261.135Z" fill="url(#paint13_diamond_8003_74)"/>
<path d="M43.5941 261V242.1H47.2391V258.165H55.5281V261H43.5941ZM64.2075 261.324C62.8395 261.324 61.6245 261.036 60.5625 260.46C59.5185 259.884 58.6995 259.074 58.1055 258.03C57.5115 256.986 57.2145 255.789 57.2145 254.439C57.2145 253.035 57.5025 251.802 58.0785 250.74C58.6725 249.66 59.4915 248.814 60.5355 248.202C61.5795 247.59 62.8035 247.284 64.2075 247.284C65.5395 247.284 66.7095 247.572 67.7175 248.148C68.7435 248.724 69.5445 249.516 70.1205 250.524C70.6965 251.514 70.9845 252.639 70.9845 253.899C70.9845 254.079 70.9755 254.286 70.9575 254.52C70.9575 254.736 70.9485 254.961 70.9305 255.195H59.8065V252.954H67.2855C67.2315 252.126 66.9165 251.469 66.3405 250.983C65.7645 250.479 65.0535 250.227 64.2075 250.227C63.5955 250.227 63.0285 250.371 62.5065 250.659C61.9845 250.929 61.5705 251.343 61.2645 251.901C60.9585 252.459 60.8055 253.161 60.8055 254.007V254.79C60.8055 255.51 60.9495 256.14 61.2375 256.68C61.5255 257.22 61.9215 257.634 62.4255 257.922C62.9475 258.21 63.5325 258.354 64.1805 258.354C64.8285 258.354 65.3775 258.21 65.8275 257.922C66.2955 257.616 66.6465 257.229 66.8805 256.761H70.5795C70.3275 257.607 69.9045 258.381 69.3105 259.083C68.7165 259.767 67.9785 260.316 67.0965 260.73C66.2325 261.126 65.2695 261.324 64.2075 261.324ZM76.7132 261L71.9342 247.608H75.7682L79.0352 257.76H79.0622L82.3292 247.608H86.1362L81.3302 261H76.7132ZM94.1343 261.324C92.7663 261.324 91.5513 261.036 90.4893 260.46C89.4453 259.884 88.6263 259.074 88.0323 258.03C87.4383 256.986 87.1413 255.789 87.1413 254.439C87.1413 253.035 87.4293 251.802 88.0053 250.74C88.5993 249.66 89.4183 248.814 90.4623 248.202C91.5063 247.59 92.7303 247.284 94.1343 247.284C95.4663 247.284 96.6363 247.572 97.6443 248.148C98.6703 248.724 99.4713 249.516 100.047 250.524C100.623 251.514 100.911 252.639 100.911 253.899C100.911 254.079 100.902 254.286 100.884 254.52C100.884 254.736 100.875 254.961 100.857 255.195H89.7333V252.954H97.2123C97.1583 252.126 96.8433 251.469 96.2673 250.983C95.6913 250.479 94.9803 250.227 94.1343 250.227C93.5223 250.227 92.9553 250.371 92.4333 250.659C91.9113 250.929 91.4973 251.343 91.1913 251.901C90.8853 252.459 90.7323 253.161 90.7323 254.007V254.79C90.7323 255.51 90.8763 256.14 91.1643 256.68C91.4523 257.22 91.8483 257.634 92.3523 257.922C92.8743 258.21 93.4593 258.354 94.1073 258.354C94.7553 258.354 95.3043 258.21 95.7543 257.922C96.2223 257.616 96.5733 257.229 96.8073 256.761H100.506C100.254 257.607 99.8313 258.381 99.2373 259.083C98.6433 259.767 97.9053 260.316 97.0233 260.73C96.1593 261.126 95.1963 261.324 94.1343 261.324ZM103.605 261V241.668H107.25V261H103.605ZM117.1 261.324C115.732 261.324 114.517 261.036 113.455 260.46C112.411 259.884 111.592 259.074 110.998 258.03C110.404 256.986 110.107 255.789 110.107 254.439C110.107 253.035 110.395 251.802 110.971 250.74C111.565 249.66 112.384 248.814 113.428 248.202C114.472 247.59 115.696 247.284 117.1 247.284C118.432 247.284 119.602 247.572 120.61 248.148C121.636 248.724 122.437 249.516 123.013 250.524C123.589 251.514 123.877 252.639 123.877 253.899C123.877 254.079 123.868 254.286 123.85 254.52C123.85 254.736 123.841 254.961 123.823 255.195H112.699V252.954H120.178C120.124 252.126 119.809 251.469 119.233 250.983C118.657 250.479 117.946 250.227 117.1 250.227C116.488 250.227 115.921 250.371 115.399 250.659C114.877 250.929 114.463 251.343 114.157 251.901C113.851 252.459 113.698 253.161 113.698 254.007V254.79C113.698 255.51 113.842 256.14 114.13 256.68C114.418 257.22 114.814 257.634 115.318 257.922C115.84 258.21 116.425 258.354 117.073 258.354C117.721 258.354 118.27 258.21 118.72 257.922C119.188 257.616 119.539 257.229 119.773 256.761H123.472C123.22 257.607 122.797 258.381 122.203 259.083C121.609 259.767 120.871 260.316 119.989 260.73C119.125 261.126 118.162 261.324 117.1 261.324ZM132.645 261.324C131.403 261.324 130.287 261.018 129.297 260.406C128.307 259.794 127.533 258.957 126.975 257.895C126.417 256.833 126.138 255.627 126.138 254.277C126.138 252.927 126.417 251.73 126.975 250.686C127.533 249.624 128.307 248.796 129.297 248.202C130.305 247.59 131.43 247.284 132.672 247.284C133.68 247.284 134.553 247.473 135.291 247.851C136.047 248.211 136.65 248.715 137.1 249.363V241.668H140.745V261H137.532L137.181 259.029H137.154C136.866 259.461 136.515 259.848 136.101 260.19C135.687 260.532 135.192 260.802 134.616 261C134.058 261.216 133.401 261.324 132.645 261.324ZM133.509 258.192C134.229 258.192 134.868 258.021 135.426 257.679C135.984 257.337 136.416 256.878 136.722 256.302C137.028 255.708 137.181 255.042 137.181 254.304C137.181 253.548 137.028 252.882 136.722 252.306C136.416 251.712 135.984 251.253 135.426 250.929C134.868 250.587 134.229 250.416 133.509 250.416C132.807 250.416 132.168 250.587 131.592 250.929C131.034 251.253 130.602 251.712 130.296 252.306C129.99 252.882 129.837 253.539 129.837 254.277C129.837 255.033 129.99 255.708 130.296 256.302C130.602 256.878 131.034 257.337 131.592 257.679C132.168 258.021 132.807 258.192 133.509 258.192ZM157.62 261.324C156.216 261.324 154.947 261.045 153.813 260.487C152.679 259.929 151.779 259.092 151.113 257.976C150.447 256.86 150.114 255.438 150.114 253.71V242.1H153.759V253.737C153.759 254.673 153.912 255.465 154.218 256.113C154.542 256.743 154.992 257.211 155.568 257.517C156.162 257.823 156.864 257.976 157.674 257.976C158.502 257.976 159.204 257.823 159.78 257.517C160.374 257.211 160.824 256.743 161.13 256.113C161.436 255.465 161.589 254.673 161.589 253.737V242.1H165.234V253.71C165.234 255.438 164.892 256.86 164.208 257.976C163.524 259.092 162.597 259.929 161.427 260.487C160.275 261.045 159.006 261.324 157.62 261.324ZM168.441 266.832V247.608H171.654L172.032 249.579C172.338 249.147 172.698 248.76 173.112 248.418C173.526 248.058 174.012 247.779 174.57 247.581C175.146 247.383 175.803 247.284 176.541 247.284C177.801 247.284 178.917 247.59 179.889 248.202C180.861 248.814 181.626 249.651 182.184 250.713C182.76 251.757 183.048 252.963 183.048 254.331C183.048 255.663 182.76 256.86 182.184 257.922C181.626 258.984 180.852 259.821 179.862 260.433C178.89 261.027 177.774 261.324 176.514 261.324C175.506 261.324 174.633 261.144 173.895 260.784C173.157 260.406 172.554 259.893 172.086 259.245V266.832H168.441ZM175.677 258.192C176.397 258.192 177.036 258.03 177.594 257.706C178.152 257.364 178.584 256.905 178.89 256.329C179.196 255.735 179.349 255.069 179.349 254.331C179.349 253.575 179.196 252.909 178.89 252.333C178.584 251.739 178.152 251.271 177.594 250.929C177.036 250.587 176.397 250.416 175.677 250.416C174.957 250.416 174.318 250.587 173.76 250.929C173.202 251.271 172.77 251.73 172.464 252.306C172.158 252.882 172.005 253.548 172.005 254.304C172.005 255.06 172.158 255.735 172.464 256.329C172.77 256.905 173.202 257.364 173.76 257.706C174.318 258.03 174.957 258.192 175.677 258.192ZM186.652 254.898L186.22 242.1H190.135L189.73 254.898H186.652ZM188.191 261.135C187.525 261.135 186.985 260.937 186.571 260.541C186.157 260.127 185.95 259.632 185.95 259.056C185.95 258.444 186.157 257.94 186.571 257.544C186.985 257.13 187.525 256.923 188.191 256.923C188.857 256.923 189.397 257.13 189.811 257.544C190.225 257.94 190.432 258.444 190.432 259.056C190.432 259.632 190.225 260.127 189.811 260.541C189.397 260.937 188.857 261.135 188.191 261.135Z" fill="url(#paint14_linear_8003_74)"/>
</g>
<defs>
<filter id="filter0_ddi_8003_74" x="36.0585" y="38.1089" width="161.883" height="161.883" filterUnits="userSpaceOnUse" color-interpolation-filters="sRGB">
<feFlood flood-opacity="0" result="BackgroundImageFix"/>
<feColorMatrix in="SourceAlpha" type="matrix" values="0 0 0 0 0 0 0 0 0 0 0 0 0 0 0 0 0 0 127 0" result="hardAlpha"/>
<feOffset dy="2.05055"/>
<feGaussianBlur stdDeviation="17.1057"/>
<feComposite in2="hardAlpha" operator="out"/>
<feColorMatrix type="matrix" values="0 0 0 0 0.843137 0 0 0 0 0.886275 0 0 0 0 0.92549 0 0 0 0.34 0"/>
<feBlend mode="normal" in2="BackgroundImageFix" result="effect1_dropShadow_8003_74"/>
<feColorMatrix in="SourceAlpha" type="matrix" values="0 0 0 0 0 0 0 0 0 0 0 0 0 0 0 0 0 0 127 0" result="hardAlpha"/>
<feOffset dy="2.05055"/>
<feGaussianBlur stdDeviation="20.3663"/>
<feComposite in2="hardAlpha" operator="out"/>
<feColorMatrix type="matrix" values="0 0 0 0 1 0 0 0 0 1 0 0 0 0 1 0 0 0 0.25 0"/>
<feBlend mode="normal" in2="effect1_dropShadow_8003_74" result="effect2_dropShadow_8003_74"/>
<feBlend mode="normal" in="SourceGraphic" in2="effect2_dropShadow_8003_74" result="shape"/>
<feColorMatrix in="SourceAlpha" type="matrix" values="0 0 0 0 0 0 0 0 0 0 0 0 0 0 0 0 0 0 127 0" result="hardAlpha"/>
<feOffset/>
<feGaussianBlur stdDeviation="7.5"/>
<feComposite in2="hardAlpha" operator="arithmetic" k2="-1" k3="1"/>
<feColorMatrix type="matrix" values="0 0 0 0 1 0 0 0 0 1 0 0 0 0 1 0 0 0 1 0"/>
<feBlend mode="normal" in2="shape" result="effect3_innerShadow_8003_74"/>
</filter>
<filter id="filter1_ddi_8003_74" x="50.9385" y="52.989" width="132.123" height="132.123" filterUnits="userSpaceOnUse" color-interpolation-filters="sRGB">
<feFlood flood-opacity="0" result="BackgroundImageFix"/>
<feColorMatrix in="SourceAlpha" type="matrix" values="0 0 0 0 0 0 0 0 0 0 0 0 0 0 0 0 0 0 127 0" result="hardAlpha"/>
<feOffset dy="2.05055"/>
<feGaussianBlur stdDeviation="17.1057"/>
<feComposite in2="hardAlpha" operator="out"/>
<feColorMatrix type="matrix" values="0 0 0 0 0.827451 0 0 0 0 0.87451 0 0 0 0 0.913725 0 0 0 0.39 0"/>
<feBlend mode="normal" in2="BackgroundImageFix" result="effect1_dropShadow_8003_74"/>
<feColorMatrix in="SourceAlpha" type="matrix" values="0 0 0 0 0 0 0 0 0 0 0 0 0 0 0 0 0 0 127 0" result="hardAlpha"/>
<feOffset dy="2.05055"/>
<feGaussianBlur stdDeviation="20.3663"/>
<feComposite in2="hardAlpha" operator="out"/>
<feColorMatrix type="matrix" values="0 0 0 0 1 0 0 0 0 1 0 0 0 0 1 0 0 0 0.25 0"/>
<feBlend mode="normal" in2="effect1_dropShadow_8003_74" result="effect2_dropShadow_8003_74"/>
<feBlend mode="normal" in="SourceGraphic" in2="effect2_dropShadow_8003_74" result="shape"/>
<feColorMatrix in="SourceAlpha" type="matrix" values="0 0 0 0 0 0 0 0 0 0 0 0 0 0 0 0 0 0 127 0" result="hardAlpha"/>
<feOffset/>
<feGaussianBlur stdDeviation="7.5"/>
<feComposite in2="hardAlpha" operator="arithmetic" k2="-1" k3="1"/>
<feColorMatrix type="matrix" values="0 0 0 0 1 0 0 0 0 1 0 0 0 0 1 0 0 0 1 0"/>
<feBlend mode="normal" in2="shape" result="effect3_innerShadow_8003_74"/>
</filter>
<filter id="filter2_ddi_8003_74" x="18.4841" y="217.822" width="197.058" height="75.384" filterUnits="userSpaceOnUse" color-interpolation-filters="sRGB">
<feFlood flood-opacity="0" result="BackgroundImageFix"/>
<feColorMatrix in="SourceAlpha" type="matrix" values="0 0 0 0 0 0 0 0 0 0 0 0 0 0 0 0 0 0 127 0" result="hardAlpha"/>
<feOffset dy="1.26409"/>
<feGaussianBlur stdDeviation="10.545"/>
<feComposite in2="hardAlpha" operator="out"/>
<feColorMatrix type="matrix" values="0 0 0 0 0.796078 0 0 0 0 0.854902 0 0 0 0 0.901961 0 0 0 0.5 0"/>
<feBlend mode="normal" in2="BackgroundImageFix" result="effect1_dropShadow_8003_74"/>
<feColorMatrix in="SourceAlpha" type="matrix" values="0 0 0 0 0 0 0 0 0 0 0 0 0 0 0 0 0 0 127 0" result="hardAlpha"/>
<feOffset dy="1.26409"/>
<feGaussianBlur stdDeviation="12.555"/>
<feComposite in2="hardAlpha" operator="out"/>
<feColorMatrix type="matrix" values="0 0 0 0 1 0 0 0 0 1 0 0 0 0 1 0 0 0 0.25 0"/>
<feBlend mode="normal" in2="effect1_dropShadow_8003_74" result="effect2_dropShadow_8003_74"/>
<feBlend mode="normal" in="SourceGraphic" in2="effect2_dropShadow_8003_74" result="shape"/>
<feColorMatrix in="SourceAlpha" type="matrix" values="0 0 0 0 0 0 0 0 0 0 0 0 0 0 0 0 0 0 127 0" result="hardAlpha"/>
<feOffset/>
<feGaussianBlur stdDeviation="0.75"/>
<feComposite in2="hardAlpha" operator="arithmetic" k2="-1" k3="1"/>
<feColorMatrix type="matrix" values="0 0 0 0 1 0 0 0 0 1 0 0 0 0 1 0 0 0 1 0"/>
<feBlend mode="normal" in2="shape" result="effect3_innerShadow_8003_74"/>
</filter>
<linearGradient id="paint0_linear_8003_74" x1="117" y1="0" x2="117" y2="165.353" gradientUnits="userSpaceOnUse">
<stop stop-color="white"/>
<stop offset="1" stop-color="white" stop-opacity="0"/>
</linearGradient>
<linearGradient id="paint1_linear_8003_74" x1="116.652" y1="280.164" x2="116.652" y2="135.962" gradientUnits="userSpaceOnUse">
<stop stop-color="white"/>
<stop offset="1" stop-color="white" stop-opacity="0"/>
</linearGradient>
<linearGradient id="paint2_linear_8003_74" x1="105" y1="326.63" x2="12.741" y2="326.63" gradientUnits="userSpaceOnUse">
<stop stop-color="white" stop-opacity="0"/>
<stop offset="1" stop-color="white"/>
</linearGradient>
<linearGradient id="paint3_linear_8003_74" x1="222" y1="326.63" x2="97.9045" y2="326.63" gradientUnits="userSpaceOnUse">
<stop stop-color="white"/>
<stop offset="1" stop-color="white" stop-opacity="0"/>
</linearGradient>
<linearGradient id="paint4_linear_8003_74" x1="93.3731" y1="196.376" x2="93.3731" y2="231.081" gradientUnits="userSpaceOnUse">
<stop stop-color="white" stop-opacity="0"/>
<stop offset="1" stop-color="white"/>
</linearGradient>
<linearGradient id="paint5_linear_8003_74" x1="93.3731" y1="117" x2="93.3731" y2="211.117" gradientUnits="userSpaceOnUse">
<stop stop-color="white"/>
<stop offset="1" stop-color="white" stop-opacity="0"/>
</linearGradient>
<radialGradient id="paint6_diamond_8003_74" cx="0" cy="0" r="1" gradientUnits="userSpaceOnUse" gradientTransform="translate(60.1135 164.972) rotate(-17.4699) scale(107.471)">
<stop offset="0.421875" stop-color="#A349EF"/>
<stop offset="1" stop-color="#FF65E6"/>
</radialGradient>
<radialGradient id="paint7_diamond_8003_74" cx="0" cy="0" r="1" gradientUnits="userSpaceOnUse" gradientTransform="translate(90.9818 132.127) rotate(-26.2587) scale(51.2885 27.1527)">
<stop stop-color="#FF9FEA"/>
<stop offset="1" stop-color="white" stop-opacity="0"/>
</radialGradient>
<linearGradient id="paint8_linear_8003_74" x1="133.681" y1="152.36" x2="71.1016" y2="174.634" gradientUnits="userSpaceOnUse">
<stop stop-color="#7A96AC"/>
<stop offset="0.18" stop-color="#EAEFF3"/>
<stop offset="0.315" stop-color="#C2D4E1"/>
<stop offset="0.491919" stop-color="white"/>
<stop offset="0.615" stop-color="#D4DEE5"/>
<stop offset="0.785" stop-color="#ABBDC8"/>
<stop offset="0.955" stop-color="#BCCAD7"/>
</linearGradient>
<radialGradient id="paint9_diamond_8003_74" cx="0" cy="0" r="1" gradientUnits="userSpaceOnUse" gradientTransform="translate(82.1316 146.404) rotate(-17.4699) scale(65.874)">
<stop offset="0.421875" stop-color="#A349EF"/>
<stop offset="1" stop-color="#FF65E6"/>
</radialGradient>
<radialGradient id="paint10_diamond_8003_74" cx="0" cy="0" r="1" gradientUnits="userSpaceOnUse" gradientTransform="translate(101.052 126.272) rotate(-26.2587) scale(31.437 16.6431)">
<stop stop-color="#FF9FEA"/>
<stop offset="1" stop-color="white" stop-opacity="0"/>
</radialGradient>
<linearGradient id="paint11_linear_8003_74" x1="89.6498" y1="117.835" x2="126.572" y2="158.767" gradientUnits="userSpaceOnUse">
<stop stop-color="#7A96AC"/>
<stop offset="0.18" stop-color="#EAEFF3"/>
<stop offset="0.315" stop-color="#C2D4E1"/>
<stop offset="0.491919" stop-color="white"/>
<stop offset="0.615" stop-color="#D4DEE5"/>
<stop offset="0.785" stop-color="#ABBDC8"/>
<stop offset="0.955" stop-color="#BCCAD7"/>
</linearGradient>
<radialGradient id="paint12_diamond_8003_74" cx="0" cy="0" r="1" gradientUnits="userSpaceOnUse" gradientTransform="translate(16.9625 259.667) rotate(-4.17226) scale(237.262 60.1217)">
<stop offset="0.421875" stop-color="#A349EF"/>
<stop offset="1" stop-color="#FF65E6"/>
</radialGradient>
<radialGradient id="paint13_diamond_8003_74" cx="0" cy="0" r="1" gradientUnits="userSpaceOnUse" gradientTransform="translate(88.2156 242.094) rotate(-6.52337) scale(106.864 16.0945)">
<stop stop-color="#FF9FEA"/>
<stop offset="1" stop-color="white" stop-opacity="0"/>
</radialGradient>
<linearGradient id="paint14_linear_8003_74" x1="54.5172" y1="241.609" x2="69.5547" y2="293.468" gradientUnits="userSpaceOnUse">
<stop stop-color="#7A96AC"/>
<stop offset="0.18" stop-color="#EAEFF3"/>
<stop offset="0.315" stop-color="#C2D4E1"/>
<stop offset="0.491919" stop-color="white"/>
<stop offset="0.615" stop-color="#D4DEE5"/>
<stop offset="0.785" stop-color="#ABBDC8"/>
<stop offset="0.955" stop-color="#BCCAD7"/>
</linearGradient>
</defs>
</svg>
